<svg width="24" height="24" viewBox="0 0 6.35 6.35" xmlns="http://www.w3.org/2000/svg"><path d="M8.618 4.237V1.062h6.35v6.35h-6.35z" fill="#fcfdfd"/><path d="M2.524 5.772c-.521-.527-.574-.59-.574-.68 0-.09.052-.152.576-.679.524-.526.585-.578.675-.578.09 0 .151.05.635.534.536.534.619.635.619.757 0 .045-.173.24-.576.645-.53.535-.583.58-.678.58-.094 0-.147-.045-.677-.58zm2.44-1.378a9.447 9.447 0 01-.604-.581c-.462-.47-.517-.537-.517-.624 0-.088.059-.157.58-.682.513-.517.59-.584.673-.584.082 0 .16.067.673.584.525.53.58.594.58.684 0 .09-.054.153-.578.679-.617.62-.635.632-.806.524zm-4.42-.583c-.393-.396-.546-.57-.546-.618 0-.084 1.028-1.173 1.108-1.173.028 0 .06.021.069.047s.018.526.018 1.113c0 1.008-.012 1.181-.082 1.181-.012 0-.268-.247-.567-.55zm1.453-.17c-.01-.025-.018-.591-.018-1.259 0-.992.008-1.228.041-1.292.023-.044.27-.306.548-.584C3.044.032 3.082 0 3.185 0c.104 0 .138.03.674.578.513.525.565.587.566.68 0 .095-.074.177-1.157 1.265-.636.64-1.179 1.164-1.205 1.164s-.057-.02-.066-.046z" fill="#fff"/></svg>